<?xml version="1.0" encoding="UTF-8" standalone="no"?>
<!-- Created with Inkscape (http://www.inkscape.org/) -->

<svg
   xmlns:dc="http://purl.org/dc/elements/1.1/"
   xmlns:cc="http://creativecommons.org/ns#"
   xmlns:rdf="http://www.w3.org/1999/02/22-rdf-syntax-ns#"
   xmlns:svg="http://www.w3.org/2000/svg"
   xmlns="http://www.w3.org/2000/svg"
   xmlns:sodipodi="http://sodipodi.sourceforge.net/DTD/sodipodi-0.dtd"
   xmlns:inkscape="http://www.inkscape.org/namespaces/inkscape"
   id="svg4174"
   version="1.1"
   inkscape:version="0.91 r13725"
   xml:space="preserve"
   width="5.290709in"
   height="1.6421022in"
   viewBox="0 0 476.16383 147.7892"
   sodipodi:docname="lattice_transition_illustration.svg"><metadata
     id="metadata4180"><rdf:RDF><cc:Work
         rdf:about=""><dc:format>image/svg+xml</dc:format><dc:type
           rdf:resource="http://purl.org/dc/dcmitype/StillImage" /><dc:title></dc:title></cc:Work></rdf:RDF></metadata><defs
     id="defs4178"><marker
       inkscape:stockid="Arrow2Mstart"
       orient="auto"
       refY="0"
       refX="0"
       id="Arrow2Mstart"
       style="overflow:visible"
       inkscape:isstock="true"><path
         id="path4411"
         style="fill:#000000;fill-opacity:1;fill-rule:evenodd;stroke:#000000;stroke-width:0.625;stroke-linejoin:round;stroke-opacity:1"
         d="M 8.7185878,4.0337352 -2.2072895,0.01601326 8.7185884,-4.0017078 c -1.7454984,2.3720609 -1.7354408,5.6174519 -6e-7,8.035443 z"
         transform="scale(0.6,0.6)"
         inkscape:connector-curvature="0" /></marker><marker
       inkscape:stockid="Arrow2Lstart"
       orient="auto"
       refY="0"
       refX="0"
       id="Arrow2Lstart"
       style="overflow:visible"
       inkscape:isstock="true"><path
         id="path4405"
         style="fill:#000000;fill-opacity:1;fill-rule:evenodd;stroke:#000000;stroke-width:0.625;stroke-linejoin:round;stroke-opacity:1"
         d="M 8.7185878,4.0337352 -2.2072895,0.01601326 8.7185884,-4.0017078 c -1.7454984,2.3720609 -1.7354408,5.6174519 -6e-7,8.035443 z"
         transform="matrix(1.1,0,0,1.1,1.1,0)"
         inkscape:connector-curvature="0" /></marker><marker
       inkscape:stockid="Arrow1Mstart"
       orient="auto"
       refY="0"
       refX="0"
       id="Arrow1Mstart"
       style="overflow:visible"
       inkscape:isstock="true"><path
         id="path4393"
         d="M 0,0 5,-5 -12.5,0 5,5 0,0 Z"
         style="fill:#000000;fill-opacity:1;fill-rule:evenodd;stroke:#000000;stroke-width:1pt;stroke-opacity:1"
         transform="matrix(0.4,0,0,0.4,4,0)"
         inkscape:connector-curvature="0" /></marker><marker
       inkscape:stockid="Arrow1Lstart"
       orient="auto"
       refY="0"
       refX="0"
       id="Arrow1Lstart"
       style="overflow:visible"
       inkscape:isstock="true"><path
         id="path4387"
         d="M 0,0 5,-5 -12.5,0 5,5 0,0 Z"
         style="fill:#000000;fill-opacity:1;fill-rule:evenodd;stroke:#000000;stroke-width:1pt;stroke-opacity:1"
         transform="matrix(0.8,0,0,0.8,10,0)"
         inkscape:connector-curvature="0" /></marker><marker
       inkscape:stockid="Arrow1Mend"
       orient="auto"
       refY="0"
       refX="0"
       id="Arrow1Mend"
       style="overflow:visible"
       inkscape:isstock="true"><path
         id="path4396"
         d="M 0,0 5,-5 -12.5,0 5,5 0,0 Z"
         style="fill:#000000;fill-opacity:1;fill-rule:evenodd;stroke:#000000;stroke-width:1pt;stroke-opacity:1"
         transform="matrix(-0.4,0,0,-0.4,-4,0)"
         inkscape:connector-curvature="0" /></marker><clipPath
       clipPathUnits="userSpaceOnUse"
       id="clipPath4652"><path
         d="m 112,58.370056 4,0 0,4 -4,0 0,-4 z"
         id="path4654"
         inkscape:connector-curvature="0" /></clipPath><mask
       maskUnits="userSpaceOnUse"
       x="0"
       y="0"
       width="1"
       height="1"
       id="mask4656"><g
         id="g4658"><g
           clip-path="url(#clipPath4652)"
           id="g4660"><path
             d="m 112,58.370056 4,0 0,4 -4,0 0,-4 z"
             style="fill:#000000;fill-opacity:0.981;fill-rule:nonzero;stroke:none"
             id="path4662"
             inkscape:connector-curvature="0" /></g></g></mask><clipPath
       clipPathUnits="userSpaceOnUse"
       id="clipPath4668"><path
         d="m 112,58.370056 4,0 0,4 -4,0 0,-4 z"
         id="path4670"
         inkscape:connector-curvature="0" /></clipPath><clipPath
       clipPathUnits="userSpaceOnUse"
       id="clipPath4672"><path
         d="m 112,59 4,0 0,4 -4,0 0,-4 z"
         id="path4674"
         inkscape:connector-curvature="0" /></clipPath><clipPath
       clipPathUnits="userSpaceOnUse"
       id="clipPath4708"><path
         d="m 178,13.370056 4,0 0,4 -4,0 0,-4 z"
         id="path4710"
         inkscape:connector-curvature="0" /></clipPath><mask
       maskUnits="userSpaceOnUse"
       x="0"
       y="0"
       width="1"
       height="1"
       id="mask4712"><g
         id="g4714"><g
           clip-path="url(#clipPath4708)"
           id="g4716"><path
             d="m 178,13.370056 4,0 0,4 -4,0 0,-4 z"
             style="fill:#000000;fill-opacity:0.981;fill-rule:nonzero;stroke:none"
             id="path4718"
             inkscape:connector-curvature="0" /></g></g></mask><clipPath
       clipPathUnits="userSpaceOnUse"
       id="clipPath4724"><path
         d="m 178,13.370056 4,0 0,4 -4,0 0,-4 z"
         id="path4726"
         inkscape:connector-curvature="0" /></clipPath><clipPath
       clipPathUnits="userSpaceOnUse"
       id="clipPath4728"><path
         d="m 178,14 4,0 0,4 -4,0 0,-4 z"
         id="path4730"
         inkscape:connector-curvature="0" /></clipPath><clipPath
       clipPathUnits="userSpaceOnUse"
       id="clipPath4764"><path
         d="m 178,46.370056 4,0 0,4 -4,0 0,-4 z"
         id="path4766"
         inkscape:connector-curvature="0" /></clipPath><mask
       maskUnits="userSpaceOnUse"
       x="0"
       y="0"
       width="1"
       height="1"
       id="mask4768"><g
         id="g4770"><g
           clip-path="url(#clipPath4764)"
           id="g4772"><path
             d="m 178,46.370056 4,0 0,4 -4,0 0,-4 z"
             style="fill:#000000;fill-opacity:0.981;fill-rule:nonzero;stroke:none"
             id="path4774"
             inkscape:connector-curvature="0" /></g></g></mask><clipPath
       clipPathUnits="userSpaceOnUse"
       id="clipPath4780"><path
         d="m 178,46.370056 4,0 0,4 -4,0 0,-4 z"
         id="path4782"
         inkscape:connector-curvature="0" /></clipPath><clipPath
       clipPathUnits="userSpaceOnUse"
       id="clipPath4784"><path
         d="m 178,47 4,0 0,4 -4,0 0,-4 z"
         id="path4786"
         inkscape:connector-curvature="0" /></clipPath><clipPath
       clipPathUnits="userSpaceOnUse"
       id="clipPath4820"><path
         d="m 178,80.370056 4,0 0,4 -4,0 0,-4 z"
         id="path4822"
         inkscape:connector-curvature="0" /></clipPath><mask
       maskUnits="userSpaceOnUse"
       x="0"
       y="0"
       width="1"
       height="1"
       id="mask4824"><g
         id="g4826"><g
           clip-path="url(#clipPath4820)"
           id="g4828"><path
             d="m 178,80.370056 4,0 0,4 -4,0 0,-4 z"
             style="fill:#000000;fill-opacity:0.981;fill-rule:nonzero;stroke:none"
             id="path4830"
             inkscape:connector-curvature="0" /></g></g></mask><clipPath
       clipPathUnits="userSpaceOnUse"
       id="clipPath4836"><path
         d="m 178,80.370056 4,0 0,4 -4,0 0,-4 z"
         id="path4838"
         inkscape:connector-curvature="0" /></clipPath><clipPath
       clipPathUnits="userSpaceOnUse"
       id="clipPath4840"><path
         d="m 178,81 4,0 0,4 -4,0 0,-4 z"
         id="path4842"
         inkscape:connector-curvature="0" /></clipPath><clipPath
       clipPathUnits="userSpaceOnUse"
       id="clipPath5002"><path
         d="m 339,225.37006 4,0 0,5 -4,0 0,-5 z"
         id="path5004"
         inkscape:connector-curvature="0" /></clipPath><mask
       maskUnits="userSpaceOnUse"
       x="0"
       y="0"
       width="1"
       height="1"
       id="mask5006"><g
         id="g5008"><g
           clip-path="url(#clipPath5002)"
           id="g5010"><path
             d="m 339,225.37006 4,0 0,5 -4,0 0,-5 z"
             style="fill:#000000;fill-opacity:0.981;fill-rule:nonzero;stroke:none"
             id="path5012"
             inkscape:connector-curvature="0" /></g></g></mask><clipPath
       clipPathUnits="userSpaceOnUse"
       id="clipPath5018"><path
         d="m 339,225.37006 4,0 0,5 -4,0 0,-5 z"
         id="path5020"
         inkscape:connector-curvature="0" /></clipPath><clipPath
       clipPathUnits="userSpaceOnUse"
       id="clipPath5022"><path
         d="m 339,226 4,0 0,5 -4,0 0,-5 z"
         id="path5024"
         inkscape:connector-curvature="0" /></clipPath><clipPath
       clipPathUnits="userSpaceOnUse"
       id="clipPath5048"><path
         d="m 405,214.37006 4,0 0,4 -4,0 0,-4 z"
         id="path5050"
         inkscape:connector-curvature="0" /></clipPath><mask
       maskUnits="userSpaceOnUse"
       x="0"
       y="0"
       width="1"
       height="1"
       id="mask5052"><g
         id="g5054"><g
           clip-path="url(#clipPath5048)"
           id="g5056"><path
             d="m 405,214.37006 4,0 0,4 -4,0 0,-4 z"
             style="fill:#000000;fill-opacity:0.981;fill-rule:nonzero;stroke:none"
             id="path5058"
             inkscape:connector-curvature="0" /></g></g></mask><clipPath
       clipPathUnits="userSpaceOnUse"
       id="clipPath5064"><path
         d="m 405,214.37006 4,0 0,4 -4,0 0,-4 z"
         id="path5066"
         inkscape:connector-curvature="0" /></clipPath><clipPath
       clipPathUnits="userSpaceOnUse"
       id="clipPath5068"><path
         d="m 405,215 4,0 0,4 -4,0 0,-4 z"
         id="path5070"
         inkscape:connector-curvature="0" /></clipPath><clipPath
       clipPathUnits="userSpaceOnUse"
       id="clipPath5186"><path
         d="m 294,56.370056 4,0 0,4 -4,0 0,-4 z"
         id="path5188"
         inkscape:connector-curvature="0" /></clipPath><mask
       maskUnits="userSpaceOnUse"
       x="0"
       y="0"
       width="1"
       height="1"
       id="mask5190"><g
         id="g5192"><g
           clip-path="url(#clipPath5186)"
           id="g5194"><path
             d="m 294,56.370056 4,0 0,4 -4,0 0,-4 z"
             style="fill:#000000;fill-opacity:0.981;fill-rule:nonzero;stroke:none"
             id="path5196"
             inkscape:connector-curvature="0" /></g></g></mask><clipPath
       clipPathUnits="userSpaceOnUse"
       id="clipPath5202"><path
         d="m 294,56.370056 4,0 0,4 -4,0 0,-4 z"
         id="path5204"
         inkscape:connector-curvature="0" /></clipPath><clipPath
       clipPathUnits="userSpaceOnUse"
       id="clipPath5206"><path
         d="m 294,57 4,0 0,4 -4,0 0,-4 z"
         id="path5208"
         inkscape:connector-curvature="0" /></clipPath><marker
       inkscape:stockid="Arrow1Mend"
       orient="auto"
       refY="0"
       refX="0"
       id="Arrow1Mend-2"
       style="overflow:visible"
       inkscape:isstock="true"><path
         inkscape:connector-curvature="0"
         id="path4396-2"
         d="M 0,0 5,-5 -12.5,0 5,5 0,0 Z"
         style="fill:#000000;fill-opacity:1;fill-rule:evenodd;stroke:#000000;stroke-width:1pt;stroke-opacity:1"
         transform="matrix(-0.4,0,0,-0.4,-4,0)" /></marker><marker
       inkscape:stockid="Arrow1Mend"
       orient="auto"
       refY="0"
       refX="0"
       id="Arrow1Mend-6"
       style="overflow:visible"
       inkscape:isstock="true"><path
         inkscape:connector-curvature="0"
         id="path4396-5"
         d="M 0,0 5,-5 -12.5,0 5,5 0,0 Z"
         style="fill:#000000;fill-opacity:1;fill-rule:evenodd;stroke:#000000;stroke-width:1pt;stroke-opacity:1"
         transform="matrix(-0.4,0,0,-0.4,-4,0)" /></marker><marker
       inkscape:stockid="Arrow1Mend"
       orient="auto"
       refY="0"
       refX="0"
       id="Arrow1Mend-69"
       style="overflow:visible"
       inkscape:isstock="true"><path
         inkscape:connector-curvature="0"
         id="path4396-8"
         d="M 0,0 5,-5 -12.5,0 5,5 0,0 Z"
         style="fill:#000000;fill-opacity:1;fill-rule:evenodd;stroke:#000000;stroke-width:1pt;stroke-opacity:1"
         transform="matrix(-0.4,0,0,-0.4,-4,0)" /></marker><marker
       inkscape:stockid="Arrow1Mend"
       orient="auto"
       refY="0"
       refX="0"
       id="Arrow1Mend-1"
       style="overflow:visible"
       inkscape:isstock="true"><path
         inkscape:connector-curvature="0"
         id="path4396-4"
         d="M 0,0 5,-5 -12.5,0 5,5 0,0 Z"
         style="fill:#000000;fill-opacity:1;fill-rule:evenodd;stroke:#000000;stroke-width:1pt;stroke-opacity:1"
         transform="matrix(-0.4,0,0,-0.4,-4,0)" /></marker><marker
       inkscape:stockid="Arrow1Mend"
       orient="auto"
       refY="0"
       refX="0"
       id="Arrow1Mend-8"
       style="overflow:visible"
       inkscape:isstock="true"><path
         inkscape:connector-curvature="0"
         id="path4396-27"
         d="M 0,0 5,-5 -12.5,0 5,5 0,0 Z"
         style="fill:#000000;fill-opacity:1;fill-rule:evenodd;stroke:#000000;stroke-width:1pt;stroke-opacity:1"
         transform="matrix(-0.4,0,0,-0.4,-4,0)" /></marker><marker
       inkscape:stockid="Arrow1Mend"
       orient="auto"
       refY="0"
       refX="0"
       id="Arrow1Mend-8-1"
       style="overflow:visible"
       inkscape:isstock="true"><path
         inkscape:connector-curvature="0"
         id="path4396-27-0"
         d="M 0,0 5,-5 -12.5,0 5,5 0,0 Z"
         style="fill:#000000;fill-opacity:1;fill-rule:evenodd;stroke:#000000;stroke-width:1pt;stroke-opacity:1"
         transform="matrix(-0.4,0,0,-0.4,-4,0)" /></marker><marker
       inkscape:stockid="Arrow1Mend"
       orient="auto"
       refY="0"
       refX="0"
       id="Arrow1Mend-8-9"
       style="overflow:visible"
       inkscape:isstock="true"><path
         inkscape:connector-curvature="0"
         id="path4396-27-6"
         d="M 0,0 5,-5 -12.5,0 5,5 0,0 Z"
         style="fill:#000000;fill-opacity:1;fill-rule:evenodd;stroke:#000000;stroke-width:1pt;stroke-opacity:1"
         transform="matrix(-0.4,0,0,-0.4,-4,0)" /></marker><marker
       inkscape:stockid="Arrow1Mend"
       orient="auto"
       refY="0"
       refX="0"
       id="Arrow1Mend-1-3"
       style="overflow:visible"
       inkscape:isstock="true"><path
         inkscape:connector-curvature="0"
         id="path4396-4-2"
         d="M 0,0 5,-5 -12.5,0 5,5 0,0 Z"
         style="fill:#000000;fill-opacity:1;fill-rule:evenodd;stroke:#000000;stroke-width:1pt;stroke-opacity:1"
         transform="matrix(-0.4,0,0,-0.4,-4,0)" /></marker><marker
       inkscape:stockid="Arrow1Mend"
       orient="auto"
       refY="0"
       refX="0"
       id="Arrow1Mend-69-5"
       style="overflow:visible"
       inkscape:isstock="true"><path
         inkscape:connector-curvature="0"
         id="path4396-8-9"
         d="M 0,0 5,-5 -12.5,0 5,5 0,0 Z"
         style="fill:#000000;fill-opacity:1;fill-rule:evenodd;stroke:#000000;stroke-width:1pt;stroke-opacity:1"
         transform="matrix(-0.4,0,0,-0.4,-4,0)" /></marker><marker
       inkscape:stockid="Arrow1Mend"
       orient="auto"
       refY="0"
       refX="0"
       id="Arrow1Mend-6-8"
       style="overflow:visible"
       inkscape:isstock="true"><path
         inkscape:connector-curvature="0"
         id="path4396-5-3"
         d="M 0,0 5,-5 -12.5,0 5,5 0,0 Z"
         style="fill:#000000;fill-opacity:1;fill-rule:evenodd;stroke:#000000;stroke-width:1pt;stroke-opacity:1"
         transform="matrix(-0.4,0,0,-0.4,-4,0)" /></marker><marker
       inkscape:stockid="Arrow1Mend"
       orient="auto"
       refY="0"
       refX="0"
       id="Arrow1Mend-2-5"
       style="overflow:visible"
       inkscape:isstock="true"><path
         inkscape:connector-curvature="0"
         id="path4396-2-7"
         d="M 0,0 5,-5 -12.5,0 5,5 0,0 Z"
         style="fill:#000000;fill-opacity:1;fill-rule:evenodd;stroke:#000000;stroke-width:1pt;stroke-opacity:1"
         transform="matrix(-0.4,0,0,-0.4,-4,0)" /></marker><marker
       inkscape:stockid="Arrow1Mend"
       orient="auto"
       refY="0"
       refX="0"
       id="Arrow1Mend-0"
       style="overflow:visible"
       inkscape:isstock="true"><path
         inkscape:connector-curvature="0"
         id="path4396-46"
         d="M 0,0 5,-5 -12.5,0 5,5 0,0 Z"
         style="fill:#000000;fill-opacity:1;fill-rule:evenodd;stroke:#000000;stroke-width:1pt;stroke-opacity:1"
         transform="matrix(-0.4,0,0,-0.4,-4,0)" /></marker></defs><sodipodi:namedview
     pagecolor="#ffffff"
     bordercolor="#666666"
     borderopacity="1"
     objecttolerance="10"
     gridtolerance="10"
     guidetolerance="10"
     inkscape:pageopacity="0"
     inkscape:pageshadow="2"
     inkscape:window-width="1398"
     inkscape:window-height="945"
     id="namedview4176"
     showgrid="false"
     inkscape:zoom="1.7691415"
     inkscape:cx="247.61624"
     inkscape:cy="60.632491"
     inkscape:window-x="281"
     inkscape:window-y="0"
     inkscape:window-maximized="0"
     inkscape:current-layer="g4182"
     units="in"
     fit-margin-top="0.1"
     fit-margin-right="0.1"
     fit-margin-left="0.1"
     fit-margin-bottom="0.1" /><g
     id="g4182"
     inkscape:groupmode="layer"
     inkscape:label="lattice_transition_illustration"
     transform="matrix(1.25,0,0,-1.25,-6.8990428,548.36257)"><path
       d="m 32.443844,372.76505 6.285,-11.129 -6.23,-11.113 -12.754,-0.055 -6.449,11.168 6.312,11.094 12.836,0.035 z"
       style="fill:#000000;fill-opacity:0;fill-rule:nonzero;stroke:#000000;stroke-width:1;stroke-linecap:butt;stroke-linejoin:miter;stroke-miterlimit:4;stroke-dasharray:none;stroke-opacity:1"
       id="path4328"
       inkscape:connector-curvature="0" /><path
       d="m 51.515804,383.79627 6.281,-11.125 -6.231,-11.113 -12.754,-0.055 -6.449,11.168 6.313,11.094 12.84,0.031 z"
       style="fill:#000000;fill-opacity:0;fill-rule:nonzero;stroke:#000000;stroke-width:1;stroke-linecap:butt;stroke-linejoin:miter;stroke-miterlimit:4;stroke-dasharray:none;stroke-opacity:1"
       id="path4332"
       inkscape:connector-curvature="0" /><path
       d="m 32.444564,350.49403 6.281,-11.126 -6.231,-11.113 -12.75,-0.058 -6.449,11.171 6.313,11.09 12.836,0.036 z"
       style="fill:#000000;fill-opacity:1;fill-rule:nonzero;stroke:#000000;stroke-width:1;stroke-linecap:butt;stroke-linejoin:miter;stroke-miterlimit:4;stroke-dasharray:none;stroke-opacity:1"
       id="path4404"
       inkscape:connector-curvature="0" /><path
       d="m 51.573424,361.57888 6.281,-11.125 -6.226,-11.113 -12.754,-0.059 -6.449,11.172 6.312,11.09 12.836,0.035 z"
       style="fill:#000000;fill-opacity:0.2;fill-rule:nonzero;stroke:#000000;stroke-width:1;stroke-linecap:butt;stroke-linejoin:miter;stroke-miterlimit:4;stroke-dasharray:none;stroke-opacity:1"
       id="path4408"
       inkscape:connector-curvature="0" /><g
       id="g4650" /><g
       id="g4706" /><g
       id="g4762" /><g
       id="g4818" /><g
       id="g5000" /><g
       id="g5046" /><g
       id="g5184" /><path
       inkscape:connector-curvature="0"
       id="path4338"
       style="fill:#5d5da5;fill-opacity:0;fill-rule:nonzero;stroke:none;stroke-opacity:1"
       d="m 27.275934,358.63126 -1.422,-5.789 -1.433,5.801 2.855,-0.012 z" /><path
       d="m 70.756644,372.76469 6.285,-11.129 -6.23,-11.113 -12.754,-0.055 -6.449,11.168 6.312,11.094 12.836,0.035 z"
       style="fill:#000000;fill-opacity:0;fill-rule:nonzero;stroke:#000000;stroke-width:1;stroke-linecap:butt;stroke-linejoin:miter;stroke-miterlimit:4;stroke-dasharray:none;stroke-opacity:1"
       id="path4328-6"
       inkscape:connector-curvature="0" /><path
       d="m 89.878454,383.79589 6.281,-11.125 -6.231,-11.113 -12.754,-0.055 -6.449,11.168 6.313,11.094 12.84,0.031 z"
       style="fill:#000000;fill-opacity:0;fill-rule:nonzero;stroke:#000000;stroke-width:1;stroke-linecap:butt;stroke-linejoin:miter;stroke-miterlimit:4;stroke-dasharray:none;stroke-opacity:1"
       id="path4332-0"
       inkscape:connector-curvature="0" /><path
       d="m 70.757764,350.45701 6.281,-11.126 -6.231,-11.113 -12.75,-0.058 -6.449,11.171 6.313,11.09 12.836,0.036 z"
       style="fill:#000000;fill-opacity:0.2;fill-rule:nonzero;stroke:#000000;stroke-width:1;stroke-linecap:butt;stroke-linejoin:miter;stroke-miterlimit:4;stroke-dasharray:none;stroke-opacity:1"
       id="path4404-8"
       inkscape:connector-curvature="0" /><path
       d="m 89.873414,361.59846 6.281,-11.125 -6.226,-11.113 -12.754,-0.059 -6.449,11.172 6.312,11.09 12.836,0.035 z"
       style="fill:#000000;fill-opacity:0.2;fill-rule:nonzero;stroke:#000000;stroke-width:1;stroke-linecap:butt;stroke-linejoin:miter;stroke-miterlimit:4;stroke-dasharray:none;stroke-opacity:1"
       id="path4408-3"
       inkscape:connector-curvature="0" /><path
       inkscape:connector-curvature="0"
       id="path4338-3"
       style="fill:#5d5da5;fill-opacity:0;fill-rule:nonzero;stroke:none;stroke-opacity:1"
       d="m 68.417224,358.1496 -1.422,-5.789 -1.433,5.801 2.855,-0.012 z" /><path
       d="m 70.756644,417.28126 6.285,-11.129 -6.23,-11.113 -12.754,-0.055 -6.449,11.168 6.312,11.094 12.836,0.035 z"
       style="fill:#000000;fill-opacity:0;fill-rule:nonzero;stroke:#000000;stroke-width:1;stroke-linecap:butt;stroke-linejoin:miter;stroke-miterlimit:4;stroke-dasharray:none;stroke-opacity:1"
       id="path4328-4"
       inkscape:connector-curvature="0" /><path
       d="m 89.878454,428.46126 6.281,-11.125 -6.231,-11.113 -12.754,-0.055 -6.449,11.168 6.313,11.094 12.84,0.031 z"
       style="fill:#000000;fill-opacity:0;fill-rule:nonzero;stroke:#000000;stroke-width:1;stroke-linecap:butt;stroke-linejoin:miter;stroke-miterlimit:4;stroke-dasharray:none;stroke-opacity:1"
       id="path4332-6"
       inkscape:connector-curvature="0" /><path
       d="m 70.757664,395.12297 6.281,-11.126 -6.231,-11.113 -12.75,-0.058 -6.449,11.171 6.313,11.09 12.836,0.036 z"
       style="fill:#000000;fill-opacity:0.20392157;fill-rule:nonzero;stroke:#000000;stroke-width:1;stroke-linecap:butt;stroke-linejoin:miter;stroke-miterlimit:4;stroke-dasharray:none;stroke-opacity:1"
       id="path4404-84"
       inkscape:connector-curvature="0" /><path
       d="m 89.841064,406.17192 6.281,-11.125 -6.226,-11.113 -12.754,-0.059 -6.449,11.172 6.312,11.09 12.836,0.035 z"
       style="fill:#000000;fill-opacity:0.2;fill-rule:nonzero;stroke:#000000;stroke-width:1;stroke-linecap:butt;stroke-linejoin:miter;stroke-miterlimit:4;stroke-dasharray:none;stroke-opacity:1"
       id="path4408-6"
       inkscape:connector-curvature="0" /><path
       inkscape:connector-curvature="0"
       id="path4338-6"
       style="fill:#5d5da5;fill-opacity:0;fill-rule:nonzero;stroke:none;stroke-opacity:1"
       d="m 66.948164,406.99569 -1.422,-5.789 -1.433,5.801 2.855,-0.012 z" /><path
       d="m 32.443844,417.21917 6.285,-11.129 -6.23,-11.113 -12.754,-0.055 -6.449,11.168 6.312,11.094 12.836,0.035 z"
       style="fill:#000000;fill-opacity:0.2;fill-rule:nonzero;stroke:#000000;stroke-width:1;stroke-linecap:butt;stroke-linejoin:miter;stroke-miterlimit:4;stroke-dasharray:none;stroke-opacity:1"
       id="path4328-1"
       inkscape:connector-curvature="0" /><path
       d="m 51.578454,428.39917 6.281,-11.125 -6.231,-11.113 -12.754,-0.055 -6.449,11.168 6.313,11.094 12.84,0.031 z"
       style="fill:#000000;fill-opacity:0;fill-rule:nonzero;stroke:#000000;stroke-width:1;stroke-linecap:butt;stroke-linejoin:miter;stroke-miterlimit:4;stroke-dasharray:none;stroke-opacity:1"
       id="path4332-06"
       inkscape:connector-curvature="0" /><path
       d="m 32.444864,394.92988 6.281,-11.126 -6.231,-11.113 -12.75,-0.058 -6.449,11.171 6.313,11.09 12.836,0.036 z"
       style="fill:#000000;fill-opacity:0;fill-rule:nonzero;stroke:#000000;stroke-width:1;stroke-linecap:butt;stroke-linejoin:miter;stroke-miterlimit:4;stroke-dasharray:none;stroke-opacity:1"
       id="path4404-2"
       inkscape:connector-curvature="0" /><path
       d="m 51.573444,406.15201 6.281,-11.125 -6.226,-11.113 -12.754,-0.059 -6.449,11.172 6.312,11.09 12.836,0.035 z"
       style="fill:#000000;fill-opacity:0.2;fill-rule:nonzero;stroke:#000000;stroke-width:1;stroke-linecap:butt;stroke-linejoin:miter;stroke-miterlimit:4;stroke-dasharray:none;stroke-opacity:1"
       id="path4408-2"
       inkscape:connector-curvature="0" /><path
       inkscape:connector-curvature="0"
       id="path4338-8"
       style="fill:#5d5da5;fill-opacity:0;fill-rule:nonzero;stroke:none;stroke-opacity:1"
       d="m 23.427384,406.26117 -1.422,-5.789 -1.433,5.801 2.855,-0.012 z" /><path
       style="fill:none;stroke:#000000;stroke-width:0.80000001px;stroke-linecap:butt;stroke-linejoin:miter;stroke-opacity:1;marker-end:url(#Arrow1Mend)"
       d="m 83.629034,345.46171 -0.25902,9.4542"
       id="path4381"
       inkscape:connector-curvature="0" /><path
       style="fill:none;stroke:#000000;stroke-width:0.80000001px;stroke-linecap:butt;stroke-linejoin:miter;stroke-opacity:1;marker-end:url(#Arrow1Mend-2)"
       d="m 49.839994,347.86408 -8.31708,4.50279"
       id="path4381-8"
       inkscape:connector-curvature="0" /><path
       style="fill:none;stroke:#000000;stroke-width:0.80000001px;stroke-linecap:butt;stroke-linejoin:miter;stroke-opacity:1;marker-end:url(#Arrow1Mend-6)"
       d="m 88.195594,397.7712 -8.05807,-4.95142"
       id="path4381-4"
       inkscape:connector-curvature="0" /><path
       style="fill:none;stroke:#000000;stroke-width:0.80000001px;stroke-linecap:butt;stroke-linejoin:miter;stroke-opacity:1;marker-end:url(#Arrow1Mend-69)"
       d="m 45.055964,400.29019 0.25902,-9.4542"
       id="path4381-2"
       inkscape:connector-curvature="0" /><path
       style="fill:none;stroke:#000000;stroke-width:0.80000001px;stroke-linecap:butt;stroke-linejoin:miter;stroke-opacity:1;marker-end:url(#Arrow1Mend-1)"
       d="m 21.580994,408.9797 8.31709,-4.50278"
       id="path4381-7"
       inkscape:connector-curvature="0" /><path
       style="fill:none;stroke:#000000;stroke-width:0.80000001px;stroke-linecap:butt;stroke-linejoin:miter;stroke-opacity:1;marker-end:url(#Arrow1Mend-8)"
       d="m 60.024564,381.47774 8.05807,4.95142"
       id="path4381-3"
       inkscape:connector-curvature="0" /><g
       id="g32168"
       transform="matrix(0.81987612,0,0,0.81987612,46.695323,320.10859)"><path
         inkscape:connector-curvature="0"
         id="path5166"
         style="fill:#000000;fill-opacity:0.2;fill-rule:nonzero;stroke:#000000;stroke-width:1;stroke-linecap:butt;stroke-linejoin:miter;stroke-miterlimit:4;stroke-dasharray:none;stroke-opacity:1"
         d="m 302.047,97.78806 6.285,-11.125 -6.23,-11.113 -12.754,-0.055 -6.45,11.168 6.313,11.094 12.836,0.031 z" /><path
         inkscape:connector-curvature="0"
         id="path5176"
         style="fill:none;stroke:#000000;stroke-width:1;stroke-linecap:butt;stroke-linejoin:miter;stroke-miterlimit:4;stroke-dasharray:none;stroke-opacity:1"
         d="m 302.047,126.07706 6.285,-11.129 -6.23,-11.113 -12.754,-0.055 -6.45,11.168 6.313,11.094 12.836,0.035 z" /><path
         inkscape:connector-curvature="0"
         id="path5180"
         style="fill:#000000;fill-opacity:0.2;fill-rule:nonzero;stroke:#000000;stroke-width:1;stroke-linecap:butt;stroke-linejoin:miter;stroke-miterlimit:4;stroke-dasharray:none;stroke-opacity:1"
         d="m 302.023,69.52606 6.286,-11.125 -6.231,-11.113 -12.754,-0.055 -6.449,11.168 6.313,11.094 12.835,0.031 z" /><path
         inkscape:connector-curvature="0"
         id="path5226"
         style="fill:#000000;fill-opacity:1;fill-rule:nonzero;stroke:#000000;stroke-width:1;stroke-linecap:butt;stroke-linejoin:miter;stroke-miterlimit:4;stroke-dasharray:none;stroke-opacity:1"
         d="m 302.141,41.01106 6.281,-11.125 -6.227,-11.114 -12.754,-0.058 -6.449,11.172 6.313,11.089 12.836,0.036 z" /><text
         y="-112.74774"
         x="316.89249"
         transform="scale(1,-1)"
         style="font-variant:normal;font-weight:normal;font-size:8px;font-family:'Bitstream Vera Sans';-inkscape-font-specification:BitstreamVeraSans-Roman;writing-mode:lr-tb;fill:#000000;fill-opacity:1;fill-rule:nonzero;stroke:none"
         id="text5236"><tspan
           y="-112.74774"
           x="316.89249"
           sodipodi:role="line"
           id="tspan5238">FLUID</tspan><tspan
           x="316.91196 323.80795 329.95996 335.43198 337.78397 343.76797 349.95996 352.49597 356.82397 362.29596 367.28796 372.19995 374.55197 380.13596 384.59198 389.63995"
           y="-84.21273"
           sodipodi:role="line"
           id="tspan5240">MOVING PARTICLE </tspan><tspan
           y="-74.21273"
           x="324.51996 327.63995 332.56796 335.73596 338.85596 343.74396 350.27997 352.81595 359.51196 362.04797 367.11996 369.33597 372.47995 377.39996 381.79196 384.92798 387.14395 392.03195 397.09598 400.21597"
           sodipodi:role="line"
           id="tspan5242">(arrow = direction) </tspan><tspan
           x="316.91199 322.46399 327.51199 332.58398 337.49597 339.84799 345.832 352.02399 354.56 358.888 364.35999 369.35199 374.25598 376.608 382.19199 386.64798"
           y="-55.819717"
           sodipodi:role="line"
           id="tspan5244">RESTING PARTICLE</tspan><tspan
           x="316.89249"
           y="inf"
           sodipodi:role="line"
           id="tspan5246" /><tspan
           id="tspan31996"
           x="316.89249"
           y="-inf"
           sodipodi:role="line" /><tspan
           id="tspan31998"
           x="316.89249"
           y="0"
           sodipodi:role="line">ROCK</tspan></text>
<path
         inkscape:connector-curvature="0"
         id="path5250"
         style="fill:none;stroke:#000000;stroke-width:0.49053803;stroke-linecap:square;stroke-linejoin:miter;stroke-miterlimit:10;stroke-dasharray:none;stroke-opacity:1"
         d="m 274.13414,135.27192 131.23668,0 0,-125.493723 -131.23668,0 0,125.493723 z" /><path
         inkscape:connector-curvature="0"
         id="path4381-3-3"
         d="m 291.1682,83.928844 8.05807,4.95142"
         style="fill:none;stroke:#000000;stroke-width:0.80000001px;stroke-linecap:butt;stroke-linejoin:miter;stroke-opacity:1;marker-end:url(#Arrow1Mend-8-1)" /></g><path
       d="m 176.49244,375.29314 6.285,-11.129 -6.23,-11.113 -12.754,-0.055 -6.449,11.168 6.312,11.094 12.836,0.035 z"
       style="fill:#000000;fill-opacity:0;fill-rule:nonzero;stroke:#000000;stroke-width:1;stroke-linecap:butt;stroke-linejoin:miter;stroke-miterlimit:4;stroke-dasharray:none;stroke-opacity:1"
       id="path4328-7"
       inkscape:connector-curvature="0" /><path
       d="m 195.5644,386.32436 6.281,-11.125 -6.231,-11.113 -12.754,-0.055 -6.449,11.168 6.313,11.094 12.84,0.031 z"
       style="fill:#000000;fill-opacity:0.2;fill-rule:nonzero;stroke:#000000;stroke-width:1;stroke-linecap:butt;stroke-linejoin:miter;stroke-miterlimit:4;stroke-dasharray:none;stroke-opacity:1"
       id="path4332-1"
       inkscape:connector-curvature="0" /><path
       d="m 176.49316,353.02212 6.281,-11.126 -6.231,-11.113 -12.75,-0.058 -6.449,11.171 6.313,11.09 12.836,0.036 z"
       style="fill:#000000;fill-opacity:1;fill-rule:nonzero;stroke:#000000;stroke-width:1;stroke-linecap:butt;stroke-linejoin:miter;stroke-miterlimit:4;stroke-dasharray:none;stroke-opacity:1"
       id="path4404-85"
       inkscape:connector-curvature="0" /><path
       d="m 195.62202,364.10697 6.281,-11.125 -6.226,-11.113 -12.754,-0.059 -6.449,11.172 6.312,11.09 12.836,0.035 z"
       style="fill:#000000;fill-opacity:0.2;fill-rule:nonzero;stroke:#000000;stroke-width:1;stroke-linecap:butt;stroke-linejoin:miter;stroke-miterlimit:4;stroke-dasharray:none;stroke-opacity:1"
       id="path4408-34"
       inkscape:connector-curvature="0" /><path
       inkscape:connector-curvature="0"
       id="path4338-5"
       style="fill:#5d5da5;fill-opacity:0;fill-rule:nonzero;stroke:none;stroke-opacity:1"
       d="m 171.32453,361.15935 -1.422,-5.789 -1.433,5.801 2.855,-0.012 z" /><path
       d="m 214.80524,375.29278 6.285,-11.129 -6.23,-11.113 -12.754,-0.055 -6.449,11.168 6.312,11.094 12.836,0.035 z"
       style="fill:#000000;fill-opacity:0;fill-rule:nonzero;stroke:#000000;stroke-width:1;stroke-linecap:butt;stroke-linejoin:miter;stroke-miterlimit:4;stroke-dasharray:none;stroke-opacity:1"
       id="path4328-6-5"
       inkscape:connector-curvature="0" /><path
       d="m 233.92705,386.32398 6.28099,-11.125 -6.23099,-11.113 -12.754,-0.055 -6.449,11.168 6.313,11.094 12.84,0.031 z"
       style="fill:#000000;fill-opacity:0;fill-rule:nonzero;stroke:#000000;stroke-width:1;stroke-linecap:butt;stroke-linejoin:miter;stroke-miterlimit:4;stroke-dasharray:none;stroke-opacity:1"
       id="path4332-0-2"
       inkscape:connector-curvature="0" /><path
       d="m 214.80636,352.9851 6.281,-11.126 -6.231,-11.113 -12.75,-0.058 -6.449,11.171 6.313,11.09 12.836,0.036 z"
       style="fill:#000000;fill-opacity:0.2;fill-rule:nonzero;stroke:#000000;stroke-width:1;stroke-linecap:butt;stroke-linejoin:miter;stroke-miterlimit:4;stroke-dasharray:none;stroke-opacity:1"
       id="path4404-8-0"
       inkscape:connector-curvature="0" /><path
       d="m 233.92201,364.12655 6.28099,-11.125 -6.22599,-11.113 -12.754,-0.059 -6.449,11.172 6.312,11.09 12.836,0.035 z"
       style="fill:#000000;fill-opacity:0.2;fill-rule:nonzero;stroke:#000000;stroke-width:1;stroke-linecap:butt;stroke-linejoin:miter;stroke-miterlimit:4;stroke-dasharray:none;stroke-opacity:1"
       id="path4408-3-7"
       inkscape:connector-curvature="0" /><path
       inkscape:connector-curvature="0"
       id="path4338-3-0"
       style="fill:#5d5da5;fill-opacity:0;fill-rule:nonzero;stroke:none;stroke-opacity:1"
       d="m 212.46582,360.67769 -1.422,-5.789 -1.433,5.801 2.855,-0.012 z" /><path
       d="m 214.80524,419.80935 6.285,-11.129 -6.23,-11.113 -12.754,-0.055 -6.449,11.168 6.312,11.094 12.836,0.035 z"
       style="fill:#000000;fill-opacity:0;fill-rule:nonzero;stroke:#000000;stroke-width:1;stroke-linecap:butt;stroke-linejoin:miter;stroke-miterlimit:4;stroke-dasharray:none;stroke-opacity:1"
       id="path4328-4-5"
       inkscape:connector-curvature="0" /><path
       d="m 233.92705,430.98935 6.28099,-11.125 -6.23099,-11.113 -12.754,-0.055 -6.449,11.168 6.313,11.094 12.84,0.031 z"
       style="fill:#000000;fill-opacity:0;fill-rule:nonzero;stroke:#000000;stroke-width:1;stroke-linecap:butt;stroke-linejoin:miter;stroke-miterlimit:4;stroke-dasharray:none;stroke-opacity:1"
       id="path4332-6-8"
       inkscape:connector-curvature="0" /><path
       d="m 214.80626,397.65106 6.281,-11.126 -6.231,-11.113 -12.75,-0.058 -6.449,11.171 6.313,11.09 12.836,0.036 z"
       style="fill:#000000;fill-opacity:0.20392157;fill-rule:nonzero;stroke:#000000;stroke-width:1;stroke-linecap:butt;stroke-linejoin:miter;stroke-miterlimit:4;stroke-dasharray:none;stroke-opacity:1"
       id="path4404-84-9"
       inkscape:connector-curvature="0" /><path
       d="m 233.88966,408.70001 6.281,-11.125 -6.226,-11.113 -12.754,-0.059 -6.449,11.172 6.312,11.09 12.836,0.035 z"
       style="fill:#000000;fill-opacity:0.2;fill-rule:nonzero;stroke:#000000;stroke-width:1;stroke-linecap:butt;stroke-linejoin:miter;stroke-miterlimit:4;stroke-dasharray:none;stroke-opacity:1"
       id="path4408-6-0"
       inkscape:connector-curvature="0" /><path
       inkscape:connector-curvature="0"
       id="path4338-6-9"
       style="fill:#5d5da5;fill-opacity:0;fill-rule:nonzero;stroke:none;stroke-opacity:1"
       d="m 210.99676,409.52378 -1.422,-5.789 -1.433,5.801 2.855,-0.012 z" /><path
       d="m 176.49244,419.74726 6.285,-11.129 -6.23,-11.113 -12.754,-0.055 -6.449,11.168 6.312,11.094 12.836,0.035 z"
       style="fill:#000000;fill-opacity:0.2;fill-rule:nonzero;stroke:#000000;stroke-width:1;stroke-linecap:butt;stroke-linejoin:miter;stroke-miterlimit:4;stroke-dasharray:none;stroke-opacity:1"
       id="path4328-1-5"
       inkscape:connector-curvature="0" /><path
       d="m 195.62705,430.92726 6.281,-11.125 -6.231,-11.113 -12.754,-0.055 -6.449,11.168 6.313,11.094 12.84,0.031 z"
       style="fill:#000000;fill-opacity:0;fill-rule:nonzero;stroke:#000000;stroke-width:1;stroke-linecap:butt;stroke-linejoin:miter;stroke-miterlimit:4;stroke-dasharray:none;stroke-opacity:1"
       id="path4332-06-8"
       inkscape:connector-curvature="0" /><path
       d="m 176.49346,397.45797 6.281,-11.126 -6.231,-11.113 -12.75,-0.058 -6.449,11.171 6.313,11.09 12.836,0.036 z"
       style="fill:#000000;fill-opacity:0;fill-rule:nonzero;stroke:#000000;stroke-width:1;stroke-linecap:butt;stroke-linejoin:miter;stroke-miterlimit:4;stroke-dasharray:none;stroke-opacity:1"
       id="path4404-2-7"
       inkscape:connector-curvature="0" /><path
       d="m 195.62204,408.6801 6.281,-11.125 -6.226,-11.113 -12.754,-0.059 -6.449,11.172 6.312,11.09 12.836,0.035 z"
       style="fill:none;fill-opacity:0.2;fill-rule:nonzero;stroke:#000000;stroke-width:1;stroke-linecap:butt;stroke-linejoin:miter;stroke-miterlimit:4;stroke-dasharray:none;stroke-opacity:1"
       id="path4408-2-1"
       inkscape:connector-curvature="0" /><path
       inkscape:connector-curvature="0"
       id="path4338-8-4"
       style="fill:#5d5da5;fill-opacity:0;fill-rule:nonzero;stroke:none;stroke-opacity:1"
       d="m 167.47598,408.78926 -1.422,-5.789 -1.433,5.801 2.855,-0.012 z" /><path
       style="fill:none;stroke:#000000;stroke-width:0.80000001px;stroke-linecap:butt;stroke-linejoin:miter;stroke-opacity:1;marker-end:url(#Arrow1Mend-0)"
       d="m 227.67763,347.9898 -0.25902,9.4542"
       id="path4381-32"
       inkscape:connector-curvature="0" /><path
       style="fill:none;stroke:#000000;stroke-width:0.80000001px;stroke-linecap:butt;stroke-linejoin:miter;stroke-opacity:1;marker-end:url(#Arrow1Mend-2-5)"
       d="m 193.88859,350.39217 -8.31708,4.50279"
       id="path4381-8-8"
       inkscape:connector-curvature="0" /><path
       style="fill:none;stroke:#000000;stroke-width:0.80000001px;stroke-linecap:butt;stroke-linejoin:miter;stroke-opacity:1;marker-end:url(#Arrow1Mend-6-8)"
       d="m 232.24419,400.29929 -8.05807,-4.95142"
       id="path4381-4-7"
       inkscape:connector-curvature="0" /><path
       style="fill:none;stroke:#000000;stroke-width:0.80000001px;stroke-linecap:butt;stroke-linejoin:miter;stroke-opacity:1;marker-end:url(#Arrow1Mend-69-5)"
       d="m 188.65236,381.11284 0.25902,-9.4542"
       id="path4381-2-1"
       inkscape:connector-curvature="0" /><path
       style="fill:none;stroke:#000000;stroke-width:0.80000001px;stroke-linecap:butt;stroke-linejoin:miter;stroke-opacity:1;marker-end:url(#Arrow1Mend-1-3)"
       d="m 165.62959,411.50779 8.31709,-4.50278"
       id="path4381-7-9"
       inkscape:connector-curvature="0" /><path
       style="fill:none;stroke:#000000;stroke-width:0.80000001px;stroke-linecap:butt;stroke-linejoin:miter;stroke-opacity:1;marker-end:url(#Arrow1Mend-8-9)"
       d="m 204.07316,384.00583 8.05807,4.95142"
       id="path4381-3-8"
       inkscape:connector-curvature="0" /><path
       style="fill:none;fill-opacity:1;stroke:#000000;stroke-width:3;stroke-linecap:butt;stroke-linejoin:miter;stroke-miterlimit:4;stroke-dasharray:none;stroke-opacity:1;marker-start:url(#Arrow2Mstart)"
       d="m 142.36546,378.87464 -37.82461,0.41565"
       id="path37066"
       inkscape:connector-curvature="0" /></g></svg>